<svg width="282" height="91" viewBox="0 0 282 91" fill="none" xmlns="http://www.w3.org/2000/svg">
<path d="M54.714 10.4555L54.693 0.0255698H54.1996L54.2221 10.2421C54.2236 11.0948 53.9234 11.9094 53.3989 12.4805L46.9096 19.0768L46.9026 15.5187V15.4978C46.9274 14.9461 47.1354 14.4279 47.4822 14.0671L52.4477 9.07365C52.8783 8.62443 53.1258 7.96417 53.1188 7.27055L53.0831 3.46108L53.0754 -3.4287e-05L52.592 0.00151954L52.5998 3.29272C52.6013 3.95918 52.367 4.59384 51.9581 5.03995L46.8041 10.3011C46.7234 10.3887 46.652 10.4857 46.5876 10.5905C46.5224 10.4857 46.4503 10.3887 46.3688 10.3026L41.1512 5.0609C40.7415 4.61789 40.5041 3.98323 40.5041 3.31599L40.4971 0.0255698L40.0138 0.0271237L40.0215 3.48823L40.0006 7.29771C39.9959 7.99055 40.245 8.64848 40.6787 9.09538L45.6636 14.0694C46.0119 14.431 46.2206 14.9461 46.2493 15.4993V15.5203L46.2571 19.0784L39.7391 12.5045C39.2131 11.9374 38.912 11.125 38.9105 10.2739L38.8895 0.0573804H38.3976L38.4186 10.488L38.3914 15.2759C38.3868 16.1332 38.6925 16.9432 39.2278 17.4964L45.489 23.7452C45.9336 24.2014 46.2074 24.8678 46.2416 25.5793L46.2641 42.2549L46.5861 42.6172L46.9492 42.2549L46.9181 25.6057V25.5746C46.9523 24.8678 47.2238 24.1967 47.6653 23.739L53.9311 17.4661C54.4649 16.9114 54.7675 16.0991 54.759 15.2433L54.714 10.4555ZM44.6138 27.0449L38.0888 20.4617C37.5628 19.8922 37.2602 19.0799 37.2587 18.2265L37.2207 0.0597096H36.7272V23.2308C36.7233 24.0881 37.0391 24.8973 37.576 25.4505L43.8356 31.6985C44.3182 32.1951 44.596 32.9197 44.5975 33.6855L44.6107 40.6147L45.3028 41.3006L45.3082 28.931C45.3098 28.2095 45.0576 27.5221 44.6138 27.0449ZM56.4449 0.0209143L55.8692 0.0224681L55.9057 18.1892C55.9065 19.0427 55.6085 19.8566 55.0841 20.4276L48.5839 27.0371C48.1417 27.5158 47.8926 28.2048 47.8973 28.9264V41.3068L48.6405 40.6085V40.5937L48.6274 33.677C48.6258 32.912 48.9005 32.1857 49.3807 31.6876L55.6163 25.4148C56.1501 24.8585 56.4511 24.0493 56.4449 23.192V0.0209143Z" fill="white"/>
<path d="M24.2262 17.305L16.0618 10.8142L15.7538 11.1998L23.7529 17.5564C24.4201 18.0879 24.8693 18.8296 24.9881 19.5962L26.0952 28.7823L23.3099 26.5688L23.2936 26.5556C22.8785 26.1917 22.6023 25.7061 22.5371 25.2095L21.7318 18.2144C21.6503 17.5975 21.288 16.9916 20.7418 16.5649L17.7423 14.2163L15.033 12.0626L14.7327 12.4412L17.3094 14.4887C17.8307 14.903 18.1814 15.4825 18.2745 16.08L19.1707 23.3901C19.1893 23.508 19.2203 23.6244 19.2622 23.74C19.1396 23.7261 19.0186 23.7214 18.8999 23.7315L11.5486 24.5392C10.9473 24.5834 10.3026 24.3724 9.78197 23.9565L7.20534 21.909L6.90508 22.2876L9.61438 24.4406L12.5789 26.8334C13.1174 27.2702 13.787 27.4851 14.4069 27.4254L21.4044 26.6332C21.904 26.5859 22.437 26.7442 22.8878 27.0677L22.9041 27.0801L25.6887 29.2936L16.4846 30.286C15.7134 30.3441 14.891 30.0726 14.2245 29.5419L6.22698 23.1845L5.91974 23.5693L14.0857 30.061L17.8106 33.069C18.4778 33.6074 19.301 33.8735 20.0675 33.7998L28.8573 32.806C29.4911 32.7431 30.1824 32.9448 30.7605 33.3615L43.8065 43.7479L44.2907 43.7223L44.234 43.2126L31.2027 32.8502L31.1786 32.83C30.6472 32.3622 30.2926 31.7322 30.2104 31.1014L29.2173 22.2907C29.1164 21.5273 28.6703 20.784 27.9961 20.2572L24.2262 17.305ZM30.89 35.5486L21.6744 36.5409C20.9008 36.5968 20.0769 36.326 19.4096 35.7953L5.1881 24.4903L4.88086 24.8759L22.9887 39.3317C23.6559 39.8702 24.4861 40.1285 25.2534 40.054L34.0408 39.0602C34.7305 38.9919 35.4699 39.2277 36.0697 39.7041L41.4929 44.0164L42.4604 43.9039L32.7971 36.1817C32.2338 35.7309 31.5402 35.499 30.89 35.5486ZM17.1519 9.44248L16.7934 9.89325L31.0134 21.1991C31.6814 21.7298 32.1314 22.4707 32.2501 23.2373L33.3611 32.4405C33.4589 33.0853 33.8422 33.7098 34.4085 34.1567L44.0835 41.8796L44.0028 40.8633L43.9912 40.8539L38.5772 36.5495C37.9783 36.0731 37.5818 35.4059 37.4926 34.72L36.4801 25.9334C36.3785 25.1692 35.9339 24.4282 35.2597 23.8983L17.1519 9.44248Z" fill="white"/>
<path d="M10.5587 45.4053L0.392586 47.736L0.501982 48.2178L10.4594 45.9321C11.2911 45.742 12.1515 45.8537 12.8242 46.2393L20.6945 51.1055L17.2272 51.9008L17.2063 51.9055C16.6631 52.0032 16.1107 51.9155 15.6825 51.6572L9.71299 47.9214C9.17998 47.601 8.48093 47.5056 7.80671 47.6669L4.09965 48.5452L0.726205 49.3195L0.834826 49.7905L4.04223 49.0542C4.69163 48.9044 5.36275 48.9921 5.888 49.2924L12.1601 53.153C12.264 53.212 12.3742 53.2601 12.4906 53.2997C12.4029 53.3866 12.3245 53.4781 12.2586 53.5774L8.30326 59.8262C7.96188 60.3235 7.39472 60.696 6.74533 60.8434L3.53792 61.5797L3.64654 62.0506L7.01921 61.2763L10.7387 60.4531C11.416 60.3034 12.0018 59.9154 12.3424 59.3933L16.0882 53.43C16.3629 53.0103 16.8199 52.6922 17.3529 52.5417L17.3731 52.5378L20.8404 51.7417L15.8741 59.5539C15.4381 60.1924 14.7126 60.6665 13.8825 60.8566L3.9243 63.1399L4.0337 63.6202L14.2006 61.2887L18.8759 60.2537C19.7123 60.0683 20.4346 59.5911 20.8551 58.9464L25.5615 51.457C25.9083 50.9224 26.4972 50.5074 27.183 50.3165L43.4396 46.6001L43.722 46.2052L43.2883 45.9321L27.0597 49.6508L27.0294 49.6578C26.3327 49.7811 25.6181 49.6648 25.0735 49.3358L17.5686 44.6155C16.9099 44.2175 16.0502 44.1026 15.2177 44.3012L10.5587 45.4053ZM28.9729 51.5796L23.9997 59.4003C23.5605 60.0396 22.8351 60.5152 22.0042 60.7053L4.29671 64.7669L4.40611 65.2479L27.0015 60.1141C27.8379 59.9286 28.5579 59.4414 28.9784 58.7951L33.684 51.3073C34.061 50.7261 34.7058 50.2955 35.4529 50.1241L42.2068 48.5755L42.722 47.7492L30.6589 50.4841C29.9544 50.6424 29.3399 51.0404 28.9729 51.5796ZM0 46.0291L0.128793 46.59L17.8363 42.53C18.668 42.3399 19.5276 42.45 20.2011 42.8356L28.0861 47.7088C28.651 48.0347 29.3779 48.1247 30.0809 47.961L42.1533 45.2175L41.3083 44.6473L41.2936 44.6504L34.5514 46.1959C33.8058 46.3666 33.0369 46.2603 32.4449 45.9018L24.9462 41.2118C24.286 40.8138 23.4294 40.6997 22.5954 40.8952L0 46.0291Z" fill="white"/>
<path d="M23.9926 73.6178L19.4717 83.0173L19.9163 83.2315L24.3425 74.0236C24.7126 73.2555 25.3372 72.6526 26.058 72.3671L34.7709 69.2528L33.2293 72.4587L33.2199 72.4773C32.9577 72.963 32.5449 73.34 32.0748 73.5138L25.4319 75.8484C24.8484 76.0649 24.3379 76.5521 24.0431 77.1798L22.4169 80.6246L20.9171 83.7443L21.3532 83.953L22.7784 80.9869C23.067 80.3864 23.5543 79.9162 24.1168 79.6928L31.0468 77.1992C31.1577 77.1557 31.264 77.0991 31.3672 77.0331C31.3812 77.1557 31.4037 77.2744 31.4393 77.3877L33.8554 84.3774C34.0315 84.9547 33.9686 85.6297 33.6785 86.2294L32.2532 89.1955L32.6885 89.4042L34.1882 86.2853L35.8648 82.8645C36.1705 82.2423 36.2326 81.5424 36.0371 80.9504L33.7142 74.3029C33.5574 73.8265 33.5939 73.271 33.8088 72.7605L33.8181 72.7418L35.3598 69.5352L38.3662 78.2908C38.5935 79.0302 38.5105 79.8929 38.142 80.6595L33.7142 89.8666L34.1572 90.0808L38.6781 80.6804L40.7861 76.3814C41.1632 75.6117 41.2408 74.7498 40.9995 74.0189L38.0823 65.6675C37.8805 65.0639 37.924 64.3439 38.2025 63.6891L45.4405 48.6661L45.3078 48.1991L44.8237 48.3674L37.6051 63.3702L37.5919 63.3989C37.2536 64.0204 36.7167 64.5061 36.1201 64.7264L27.7486 67.6468C27.027 67.9137 26.4009 68.5134 26.0363 69.2877L23.9926 73.6178ZM40.3059 63.0777L43.3154 71.8449C43.5412 72.5867 43.4605 73.4502 43.0904 74.2183L35.217 90.5905L35.6616 90.8054L45.7462 69.9441C46.1233 69.1744 46.1915 68.3078 45.9487 67.5762L43.0322 59.2271C42.8135 58.57 42.8794 57.7964 43.2115 57.1059L46.2148 50.8618L45.8905 49.9432L40.5014 61.0776C40.1864 61.7262 40.1142 62.4547 40.3059 63.0777ZM17.8928 82.2585L18.4119 82.5076L26.2861 66.1362C26.6562 65.3681 27.2792 64.7644 28 64.4789L36.7284 61.3569C37.3351 61.1187 37.8596 60.6066 38.1692 59.9549L43.5575 48.8089L42.5838 49.113L42.5776 49.127L39.5789 55.3602C39.2476 56.0492 38.6843 56.5838 38.0357 56.8227L29.6913 59.757C28.969 60.0255 28.3452 60.6229 27.9775 61.3972L17.8928 82.2585Z" fill="white"/>
<path d="M54.4225 80.7201L58.9481 90.1173L59.3926 89.9039L54.9586 80.6999C54.5885 79.931 54.507 79.0675 54.7336 78.3258L57.7354 69.5733L59.2793 72.7784L59.2879 72.797C59.5036 73.306 59.5408 73.863 59.3833 74.3386L57.0635 80.987C56.8687 81.5782 56.9308 82.2811 57.2373 82.9026L58.9155 86.3233L60.4175 89.4407L60.8528 89.2305L59.4244 86.2659C59.135 85.6662 59.0714 84.992 59.2475 84.4132L61.6224 77.4413C61.6574 77.3272 61.6799 77.2093 61.6923 77.0875C61.797 77.1535 61.9033 77.2093 62.0143 77.252L68.9846 79.7247C69.5455 79.9473 70.0335 80.4175 70.3222 81.0188L71.7505 83.9833L72.1858 83.7731L70.6829 80.6549L69.056 77.2109C68.7604 76.5832 68.2522 76.0983 67.6672 75.8818L61.0227 73.5496C60.5525 73.375 60.1413 73.0003 59.8768 72.5138L59.8674 72.4944L58.3235 69.2893L67.0418 72.4021C67.7611 72.686 68.3841 73.2881 68.7534 74.0554L73.1866 83.2602L73.6304 83.0477L69.1041 73.6497L67.0597 69.3204C66.6935 68.5453 66.0681 67.9471 65.3458 67.6794L56.9999 64.749C56.4017 64.5294 55.8663 64.0468 55.5281 63.4207L48.3025 48.3915L47.8556 48.2038L47.6849 48.6871L54.9066 63.6884L54.9206 63.7163C55.1944 64.3688 55.2402 65.0912 55.04 65.6948L52.0988 74.0593C51.8575 74.7902 51.9358 75.6537 52.3137 76.4218L54.4225 80.7201ZM56.3629 61.395L65.0921 64.5124C65.8129 64.7987 66.4367 65.4007 66.8067 66.1696L74.6895 82.5364L75.1348 82.3238L65.1231 61.4275C64.7569 60.6525 64.1215 60.0589 63.3984 59.792L55.054 56.8624C54.4038 56.6234 53.8406 56.0896 53.5085 55.3991L50.5028 49.1558L49.5819 48.8361L54.9213 59.9945C55.2317 60.6455 55.7562 61.1568 56.3629 61.395ZM57.37 90.8784L57.8882 90.6278L50.0063 74.2603C49.6362 73.4914 49.5532 72.6286 49.7805 71.8869L52.7854 63.1174C52.9778 62.4944 52.9049 61.7658 52.5891 61.1164L47.2395 49.9518L46.8702 50.903L46.8772 50.9162L49.8775 57.1487C50.2095 57.8376 50.2763 58.6112 50.0582 59.2675L47.1449 67.6189C46.9036 68.3513 46.982 69.211 47.3583 69.9822L57.37 90.8784Z" fill="white"/>
<path d="M78.9576 61.3696L89.1244 63.6957L89.2361 63.2146L79.2757 60.9382C78.4447 60.7474 77.7185 60.2726 77.2809 59.6325L72.3131 51.8265L75.7812 52.6195L75.8014 52.6241C76.3328 52.7731 76.7921 53.0912 77.0652 53.5109L80.8142 59.4719C81.1548 59.9932 81.7421 60.3827 82.4194 60.5317L86.1397 61.3533L89.5131 62.1245L89.621 61.6536L86.4128 60.9212C85.7626 60.7722 85.1962 60.4013 84.8541 59.9032L80.8871 53.6971C80.8196 53.5986 80.7413 53.5071 80.6544 53.4217C80.7707 53.3806 80.8809 53.3333 80.9841 53.2727L87.2647 49.3686C87.7884 49.0684 88.4611 48.9799 89.1105 49.1304L92.3179 49.8628L92.4257 49.3919L89.0515 48.6207L85.3444 47.744C84.6702 47.5834 83.9735 47.678 83.4397 48L77.4718 51.7381C77.042 51.9965 76.4919 52.0841 75.9472 51.9871L75.9263 51.9825L72.4582 51.1896L80.3301 46.3179C81.0004 45.9323 81.86 45.8222 82.6902 46.0122L92.6492 48.2902L92.7601 47.8107L82.5917 45.4847L77.9326 44.3814C77.0978 44.1843 76.2405 44.2999 75.581 44.6972L68.0839 49.3911C67.5392 49.7216 66.8278 49.8396 66.1272 49.7123L49.8737 45.9828L49.4485 46.2155L49.72 46.6508L65.9495 50.3656L65.9797 50.3726C66.6609 50.565 67.2529 50.9801 67.5997 51.5131L72.3022 59.0296C72.7227 59.6744 73.4466 60.1523 74.2822 60.3362L78.9576 61.3696ZM65.0658 47.7967L72.9477 42.9197C73.6212 42.5348 74.4808 42.4231 75.3118 42.6132L93.0216 46.664L93.1325 46.1829L70.5558 40.9707C69.7217 40.7729 68.8613 40.8993 68.2018 41.2973L60.7062 45.9913C60.1142 46.3505 59.3454 46.4576 58.5982 46.2861L51.8443 44.7406L51.0204 45.2604L63.071 48.0489C63.774 48.2126 64.5009 48.1218 65.0658 47.7967ZM88.7349 65.4033L88.863 64.8424L71.154 60.7908C70.3222 60.6 69.596 60.1267 69.1577 59.4866L64.1797 51.6667C63.8128 51.1275 63.1975 50.7303 62.4938 50.572L50.4307 47.7874L50.9436 48.6696L50.9575 48.6727L57.7005 50.2159C58.4461 50.3858 59.0917 50.8171 59.4687 51.3967L64.1782 58.883C64.6003 59.5285 65.3218 60.0041 66.1582 60.1911L88.7349 65.4033Z" fill="white"/>
<path d="M79.1417 30.1224L87.3029 23.6277L86.9957 23.2405L79.0036 29.6041C78.3355 30.1356 77.5116 30.4064 76.7381 30.3497L67.5379 29.3613L70.3209 27.1454L70.338 27.133C70.7857 26.8102 71.321 26.6504 71.8199 26.6985L78.8174 27.4876C79.4365 27.5465 80.1076 27.3301 80.6468 26.894L83.6098 24.4997L86.3176 22.3444L86.0166 21.9665L83.4423 24.0164C82.9209 24.4315 82.2777 24.6425 81.6741 24.599L74.3492 23.8278C74.2305 23.8193 74.1102 23.8232 73.9884 23.8379C74.0295 23.7215 74.0613 23.6052 74.0776 23.4872L74.945 16.1429C75.0374 15.5463 75.3881 14.966 75.9102 14.5517L78.4845 12.5018L78.1835 12.1248L75.4757 14.2801L72.477 16.6302C71.9316 17.0569 71.5708 17.6605 71.4894 18.2781L70.6871 25.2748C70.6212 25.7721 70.3465 26.2563 69.9307 26.6217L69.9144 26.6349L67.1314 28.8508L68.2346 19.6591C68.3518 18.8949 68.8018 18.154 69.4682 17.6241L77.4619 11.262L77.1562 10.8764L68.9942 17.3719L65.2251 20.3248C64.5508 20.854 64.1063 21.5965 64.0046 22.3591L62.9968 31.1473C62.9153 31.7796 62.5631 32.4081 62.027 32.8767L48.9723 43.2523L48.8885 43.7302L49.3975 43.7892L62.4258 33.4237L62.4506 33.4043C63.0255 32.9915 63.7199 32.7875 64.353 32.8495L73.1613 33.8636C73.9271 33.9373 74.7526 33.6696 75.4175 33.1312L79.1417 30.1224ZM59.867 32.5113L60.9733 23.3088C61.0928 22.5422 61.5413 21.8005 62.2093 21.2698L76.4231 9.95623L76.1166 9.56908L57.9576 23.9621C57.2826 24.4912 56.845 25.2415 56.7449 26.0057L55.7363 34.7915C55.6478 35.4789 55.2522 36.1462 54.6524 36.6233L49.2307 40.9379L49.1229 41.9062L58.8203 34.2275C59.3867 33.7806 59.7692 33.156 59.867 32.5113ZM88.3946 24.9978L88.0354 24.5478L73.8208 35.8599C73.1528 36.3906 72.3296 36.6629 71.5561 36.6063L62.3396 35.6186C61.6887 35.5689 60.9943 35.8017 60.4318 36.2532L50.7297 43.9428L51.7383 44.0925L51.7499 44.0832L57.1631 39.7764C57.7613 39.3 58.5007 39.0642 59.1889 39.1309L67.9786 40.1217C68.7459 40.1946 69.5676 39.9277 70.2356 39.39L88.3946 24.9978Z" fill="white"/>
<path d="M116.567 27.2424C117.221 27.2424 117.657 26.7335 117.657 26.1283C117.657 25.4975 117.197 25.0134 116.567 25.0134C115.961 25.0134 115.5 25.5223 115.5 26.1283C115.5 26.7335 115.937 27.2424 116.567 27.2424Z" fill="white"/>
<path d="M119.572 27.2424C120.25 27.2424 120.663 26.7335 120.663 26.1283C120.663 25.4975 120.226 25.0134 119.596 25.0134C118.966 25.0134 118.482 25.5223 118.482 26.1283C118.482 26.7335 118.942 27.2424 119.572 27.2424Z" fill="white"/>
<path d="M154.269 42.4837C153.615 42.4837 153.154 42.9926 153.154 43.5986C153.154 44.2286 153.615 44.7375 154.221 44.7375H154.245C154.923 44.7375 155.336 44.2286 155.336 43.5986C155.336 42.9686 154.899 42.4837 154.269 42.4837Z" fill="white"/>
<path d="M151.24 42.4837C150.634 42.4837 150.15 42.9926 150.15 43.5986C150.15 44.2286 150.61 44.7375 151.216 44.7375H151.24C151.894 44.7375 152.306 44.2286 152.306 43.5986C152.306 42.9686 151.87 42.4837 151.24 42.4837Z" fill="white"/>
<path d="M157.855 26.5641H157.879C158.534 26.5641 158.945 26.0551 158.945 25.4251C158.945 24.7951 158.509 24.3102 157.879 24.3102C157.273 24.3102 156.789 24.8192 156.789 25.4251C156.789 26.0551 157.249 26.5641 157.855 26.5641Z" fill="white"/>
<path d="M160.86 26.5641H160.884C161.563 26.5641 161.975 26.0551 161.975 25.4251C161.975 24.7951 161.538 24.3102 160.908 24.3102C160.278 24.3102 159.794 24.8192 159.794 25.4251C159.794 26.0551 160.254 26.5641 160.86 26.5641Z" fill="white"/>
<path d="M190.034 42.5322C189.428 42.5322 188.943 43.0411 188.943 43.6463C188.943 44.2771 189.404 44.7853 190.01 44.7853H190.034C190.688 44.7853 191.1 44.2771 191.1 43.6463C191.1 43.0171 190.664 42.5322 190.034 42.5322Z" fill="white"/>
<path d="M196.673 36.959C196.673 32.2581 193.475 29.1081 188.846 29.1081C186.981 29.1081 185.794 29.496 185.285 29.7381L185.769 31.3379C186.472 30.9981 187.514 30.732 188.774 30.732C192.287 30.732 194.613 32.961 194.613 36.8869C194.613 37.468 194.565 38.025 194.468 38.51H184.533C183.031 38.4859 182.013 37.177 182.037 35.796V29.1081L180.074 29.787V35.1901C180.074 37.274 179.299 38.51 177.749 38.51C176.27 38.51 175.325 37.1041 175.325 35.772V30.1989L173.363 30.9011V35.578C173.363 37.274 172.66 38.51 171.182 38.51C169.655 38.51 168.686 37.1289 168.686 35.772V31.0951L166.723 31.798V35.578C166.723 37.274 165.972 38.51 164.494 38.51C163.016 38.4859 161.975 37.153 161.999 35.772V29.1081L160.036 29.787V35.578C160.036 37.2632 159.293 38.4921 157.835 38.5084C156.343 38.4719 155.336 37.1468 155.36 35.772V29.1081L153.397 29.787V35.578C153.397 37.274 152.646 38.51 151.168 38.51H123.667C122.116 38.51 121.486 37.274 121.486 35.1901V29.3021C120.856 29.2051 119.838 29.1329 118.505 29.1329C115.234 29.1329 112.133 30.417 112.133 34.0519C112.133 37.3229 114.871 38.752 117.754 38.752C118.336 38.752 119.111 38.7039 120.274 38.51C121.001 39.7211 122.213 40.109 123.109 40.109H151.895C153.349 40.109 154.439 39.2129 154.923 37.9529C155.699 39.261 156.814 40.109 158.534 40.109C159.988 40.109 161.102 39.2129 161.562 37.9529C162.338 39.261 163.453 40.109 165.173 40.109C165.19 40.109 165.204 40.1075 165.219 40.1067L165.221 40.109C166.675 40.109 167.765 39.2129 168.25 37.9529C168.977 39.261 170.164 40.109 171.836 40.109C173.29 40.109 174.405 39.2129 174.865 37.9529C175.616 39.358 176.779 40.109 178.475 40.109C179.517 40.109 180.923 39.6241 181.601 37.904C182.304 39.261 183.491 40.085 185.212 40.109H197.012L197.691 38.51H196.552C196.625 38.025 196.673 37.5161 196.673 36.959ZM119.547 37.1041C119.063 37.153 118.505 37.2011 117.997 37.2011C116.034 37.2011 114.144 36.305 114.144 34.003C114.144 31.7251 115.84 30.635 118.021 30.635C118.651 30.635 119.111 30.659 119.547 30.756V37.1041Z" fill="white"/>
<path d="M220.928 35.1903C220.928 37.261 220.161 38.4931 218.63 38.5086C217.139 38.4722 216.131 37.1462 216.155 35.7722V24.3104L214.192 25.0133V35.5774C214.192 37.2742 213.441 38.5094 211.963 38.5094H211.939H210.291V34.1723C210.291 31.3373 209.394 29.1083 205.881 29.1083C202.731 29.1083 200.816 31.6523 200.816 34.8993C200.816 38.1222 202.973 40.1092 206.026 40.1092H208.256C208.134 42.4112 207.359 42.9194 205.421 43.2592L205.663 44.8102C208.231 44.8583 210.291 42.9194 210.267 40.1092H212.641C212.658 40.1092 212.672 40.1077 212.688 40.1069L212.69 40.1092C214.144 40.1092 215.234 39.2123 215.719 37.9523C216.494 39.2612 217.608 40.1092 219.329 40.1092H219.329C220.783 40.1084 222.891 39.1634 222.891 35.4323V24.3104L220.928 25.0133V35.1903ZM208.328 38.5094H206.511C204.572 38.5094 202.707 37.7343 202.683 34.7294C202.61 31.8463 204.064 30.4893 205.711 30.4893C207.747 30.4893 208.328 32.1854 208.328 33.4454V38.5094Z" fill="white"/>
<path d="M224.829 40.1091H226.792V24.3103L224.829 25.0132V40.1091Z" fill="white"/>
<path d="M241.499 42.4837C240.845 42.4837 240.384 42.9926 240.384 43.5986C240.384 44.2286 240.821 44.7375 241.45 44.7375H241.475C242.129 44.7375 242.565 44.2286 242.565 43.5986C242.565 42.9686 242.104 42.4837 241.499 42.4837Z" fill="white"/>
<path d="M247.266 35.1903C247.266 37.2743 246.49 38.5094 244.94 38.5094H238.179C235.975 38.5094 234.545 36.5473 234.545 34.3904C234.545 32.0644 236.071 30.6104 237.186 29.8834L236.459 28.7933C234.981 29.3993 232.752 31.2893 232.752 34.4144C232.752 38.2674 235.66 40.1093 238.179 40.1093H245.667C247.121 40.1093 249.229 39.1643 249.229 35.4324V29.1083L247.266 29.7872V35.1903Z" fill="white"/>
<path d="M257.419 29.1082C254.269 29.1082 252.355 31.6522 252.355 34.8992C252.355 38.1221 254.342 40.3271 257.637 40.3271C258.485 40.3271 259.188 40.2542 259.793 40.1091C259.673 42.4111 258.849 42.9922 256.958 43.2591L257.201 44.8101C260.521 44.7371 261.829 42.6532 261.829 39.1641V34.1722C261.829 31.3372 260.932 29.1082 257.419 29.1082ZM259.866 38.6071C259.333 38.7281 258.703 38.8002 257.904 38.8002C255.941 38.8002 254.244 37.7342 254.22 34.7301C254.148 32.4281 255.19 30.4892 257.249 30.4892C259.285 30.4892 259.866 32.1853 259.866 33.4453V38.6071Z" fill="white"/>
<path d="M265.173 38.6068C265.294 42.6289 264.107 43.0897 262.265 43.2589L262.507 44.8098C265.754 44.7128 267.111 42.8228 267.111 39.3338V31.313L265.173 32.0159V38.6068Z" fill="white"/>
<path d="M280.05 33.6395C279.444 31.0225 277.893 29.1085 275.107 29.1085C273.847 29.1085 272.636 29.6415 271.884 30.1504L272.223 31.6525C272.878 31.1924 273.895 30.7075 274.84 30.7075C276.755 30.7075 277.796 32.0164 278.16 33.8815L279.178 38.5096H270.019L269.34 40.1094H281.504L280.05 33.6395Z" fill="white"/>
<path d="M122.63 59.6258C122.63 63.4997 120.157 66.3378 115.995 66.3378H112.141V52.9138H115.995C120.157 52.9138 122.63 55.7519 122.63 59.6258ZM120.904 59.6258C120.904 56.7683 119.178 54.4477 115.899 54.4477H113.751V64.8039H115.899C119.178 64.8039 120.904 62.4833 120.904 59.6258Z" fill="white"/>
<path d="M133.101 52.9139H134.712V61.3901C134.712 64.4393 132.89 66.5682 129.822 66.5682C126.754 66.5682 124.932 64.4393 124.932 61.3901V52.9139H126.543V61.2179C126.543 63.3841 127.502 65.0336 129.822 65.0336C132.142 65.0336 133.101 63.3841 133.101 61.2179V52.9139Z" fill="white"/>
<path d="M137.858 52.9138H141.347C144.013 52.9138 145.835 54.4865 145.835 56.8831C145.835 60.0665 142.94 60.6616 142.556 60.719L146.277 66.3378H144.339L140.715 60.8532H139.468V66.3378H137.858V52.9138ZM144.224 56.8831C144.224 55.4067 143.246 54.4477 141.444 54.4477H139.468V59.3186H141.444C143.246 59.3186 144.224 58.3604 144.224 56.8831Z" fill="white"/>
<path d="M160.889 59.6257C160.889 63.4996 158.128 66.5681 154.254 66.5681C150.38 66.5681 147.619 63.4996 147.619 59.6257C147.619 55.7518 150.38 52.6841 154.254 52.6841C158.128 52.6841 160.889 55.7518 160.889 59.6257ZM159.164 59.6257C159.164 56.7682 157.188 54.218 154.254 54.218C151.32 54.218 149.345 56.7682 149.345 59.6257C149.345 62.4832 151.32 65.0335 154.254 65.0335C157.188 65.0335 159.164 62.4832 159.164 59.6257Z" fill="white"/>
<path d="M171.36 52.9139H172.971V61.3901C172.971 64.4393 171.149 66.5682 168.082 66.5682C165.013 66.5682 163.191 64.4393 163.191 61.3901V52.9139H164.802V61.2179C164.802 63.3841 165.761 65.0336 168.082 65.0336C170.401 65.0336 171.36 63.3841 171.36 61.2179V52.9139Z" fill="white"/>
<path d="M176.117 52.9138H179.645C182.407 52.9138 183.96 54.3329 183.96 56.5767C183.96 58.3984 182.637 59.1657 182.446 59.2037C182.637 59.2425 184.689 59.8368 184.689 62.5019C184.689 64.8419 182.963 66.3378 180.317 66.3378H176.117V52.9138ZM179.914 58.7056C181.429 58.7056 182.349 57.8809 182.349 56.5767C182.349 55.2725 181.429 54.4477 179.914 54.4477H177.728V58.7056H179.914ZM183.078 62.5019C183.078 61.2365 182.234 60.2007 180.317 60.2007H177.728V64.8031H180.317C182.234 64.8031 183.078 63.7681 183.078 62.5019Z" fill="white"/>
<path d="M192.283 52.9138H193.894V64.8031H199.916V66.3378H192.283V52.9138Z" fill="white"/>
<path d="M214.068 59.6257C214.068 63.4996 211.307 66.5681 207.433 66.5681C203.559 66.5681 200.798 63.4996 200.798 59.6257C200.798 55.7518 203.559 52.6841 207.433 52.6841C211.307 52.6841 214.068 55.7518 214.068 59.6257ZM212.343 59.6257C212.343 56.7682 210.368 54.218 207.433 54.218C204.5 54.218 202.524 56.7682 202.524 59.6257C202.524 62.4832 204.5 65.0335 207.433 65.0335C210.368 65.0335 212.343 62.4832 212.343 59.6257Z" fill="white"/>
<path d="M222.526 58.9738H227.474V64.8036C227.474 64.8036 225.69 66.5679 222.2 66.5679C218.326 66.5679 215.527 63.4993 215.527 59.6255C215.527 55.7524 218.326 52.6839 222.2 52.6839C225.671 52.6839 227.109 54.5824 227.109 54.5824L225.958 55.7136C225.958 55.7136 224.673 54.2177 222.2 54.2177C219.285 54.2177 217.252 56.7688 217.252 59.6255C217.252 62.483 219.285 65.034 222.2 65.034C224.655 65.034 225.881 64.0556 225.881 64.0556V60.5076H222.526V58.9738Z" fill="white"/>
<path d="M230.389 52.9141H232V66.338H230.389V52.9141Z" fill="white"/>
<path d="M238.981 60.2971C237.025 59.3956 235.298 58.4948 235.298 56.2122C235.298 54.6403 236.602 52.6836 239.172 52.6836C241.704 52.6836 242.989 54.6403 242.989 54.6403L241.781 55.6179C241.781 55.6179 240.84 54.2183 239.172 54.2183C237.696 54.2183 236.909 55.2533 236.909 56.2122C236.909 57.5739 238.06 58.1108 239.901 58.9549C241.953 59.8945 243.238 60.7572 243.238 62.9242C243.238 65.1106 241.435 66.5676 239.076 66.5676C235.893 66.5676 234.8 63.7675 234.8 63.7675L236.142 62.9622C236.142 62.9622 236.948 65.0338 239.076 65.0338C240.361 65.0338 241.588 64.3052 241.588 62.9242C241.588 61.5245 240.476 60.9876 238.981 60.2971Z" fill="white"/>
<path d="M248.358 54.4481H244.504V52.9142H253.823V54.4481H249.969V66.3374H248.358V54.4481Z" fill="white"/>
<path d="M255.933 52.9141H257.544V66.338H255.933V52.9141Z" fill="white"/>
<path d="M270.45 55.7904C270.45 55.7904 269.204 54.2177 266.749 54.2177C263.834 54.2177 261.84 56.7688 261.84 59.6255C261.84 62.483 263.834 65.034 266.749 65.034C269.185 65.034 270.622 63.2503 270.622 63.2503L271.716 64.3621C271.716 64.3621 269.894 66.5679 266.749 66.5679C262.875 66.5679 260.114 63.4993 260.114 59.6255C260.114 55.7524 262.875 52.6839 266.749 52.6839C269.894 52.6839 271.563 54.736 271.563 54.736L270.45 55.7904Z" fill="white"/>
<path d="M277.239 60.2971C275.283 59.3956 273.557 58.4948 273.557 56.2122C273.557 54.6403 274.861 52.6836 277.431 52.6836C279.963 52.6836 281.247 54.6403 281.247 54.6403L280.039 55.6179C280.039 55.6179 279.1 54.2183 277.431 54.2183C275.954 54.2183 275.169 55.2533 275.169 56.2122C275.169 57.5739 276.319 58.1108 278.16 58.9549C280.212 59.8945 281.496 60.7572 281.496 62.9242C281.496 65.1106 279.694 66.5676 277.336 66.5676C274.152 66.5676 273.059 63.7675 273.059 63.7675L274.401 62.9622C274.401 62.9622 275.207 65.0338 277.336 65.0338C278.62 65.0338 279.848 64.3052 279.848 62.9242C279.848 61.5245 278.735 60.9876 277.239 60.2971Z" fill="white"/>
</svg>
