<svg width="1920" height="74" viewBox="0 0 1920 74" fill="none" xmlns="http://www.w3.org/2000/svg">
<g opacity="0.2">
<path d="M1564.95 69.6046C1567.26 71.8233 1570.64 73.0939 1574.19 73.0673L1593.72 72.9219H1928.64V70.4433H1594.59C1591.17 70.4433 1587.92 69.2393 1585.64 67.1353L1558.72 40.5579C1556.72 38.7139 1553.85 37.6619 1550.85 37.6779L1531.97 37.7659H-172V41.0886H1531.46C1534.52 41.0886 1537.43 42.1926 1539.41 44.1099L1564.95 69.6046Z" fill="white"/>
<path d="M1564.95 3.4631C1567.26 1.24443 1570.64 -0.0262552 1574.19 0.000411473L1593.72 0.145757H1928.64V2.62443H1594.59C1591.17 2.62443 1587.92 3.82842 1585.64 5.93242L1558.72 32.5057C1556.72 34.3537 1553.85 35.4057 1550.85 35.3911L1531.97 35.3018H-172V31.9791H1531.46C1534.52 31.9791 1537.43 30.8751 1539.41 28.9578L1564.95 3.4631Z" fill="white"/>
</g>
</svg>
