<svg width="583" height="508" viewBox="0 0 583 508" fill="none" xmlns="http://www.w3.org/2000/svg">
<g opacity="0.5">
<path d="M532 195.001C362 97.5002 286 72.5 127.11 54.3353" stroke="white" stroke-width="0.5" stroke-linecap="round" stroke-dasharray="20 8"/>
<path d="M96.7947 232.711C91.7132 161.949 97.9646 122.838 126.712 54.2046" stroke="white" stroke-width="0.5" stroke-linecap="round" stroke-dasharray="20 8"/>
<path d="M114.724 388.778C90.8901 329.449 85.2931 295.553 97.7784 233.275" stroke="white" stroke-width="0.5" stroke-linecap="round" stroke-dasharray="20 8"/>
<path d="M113.999 385.501C16.9994 321.001 18.4996 163.001 126.5 53.5009" stroke="white" stroke-width="0.5" stroke-linecap="round" stroke-dasharray="20 8"/>
<path d="M117 387C19.9999 322.5 1 244 13.0001 111" stroke="white" stroke-width="0.5" stroke-linecap="round" stroke-dasharray="20 8"/>
<path d="M97.5001 233C64.0001 216.5 14.0001 156 14 112" stroke="white" stroke-width="0.5" stroke-linecap="round" stroke-dasharray="20 8"/>
<path d="M209 152C166.5 125.5 73.5001 104 15.0001 112.5" stroke="white" stroke-width="0.5" stroke-linecap="round" stroke-dasharray="20 8"/>
<path d="M531.5 194.5C299.5 105 114 72.0003 16.0001 114.03" stroke="white" stroke-width="0.5" stroke-linecap="round" stroke-dasharray="20 8"/>
<path d="M16.0001 114.03C121.5 192 215 282 365 331.5" stroke="white" stroke-width="0.5" stroke-linecap="round" stroke-dasharray="20 8"/>
<path d="M13 111C28.5 252.5 133 396.5 279.5 483" stroke="white" stroke-width="0.5" stroke-linecap="round" stroke-dasharray="20 8"/>
<path d="M126.5 54.0002C72.0001 54.0002 38.0001 72.5002 14.0001 112" stroke="white" stroke-width="0.5" stroke-linecap="round" stroke-dasharray="20 8"/>
<path d="M114.859 387.675C138.624 292.683 157.967 242.181 205.675 158.14" stroke="white" stroke-width="0.5" stroke-linecap="round" stroke-dasharray="20 8"/>
<path d="M116.192 386.703C211.428 385.919 266 390.397 361.999 330.5" stroke="white" stroke-width="0.5" stroke-linecap="round" stroke-dasharray="20 8"/>
<line x1="116.342" y1="386.909" x2="276.91" y2="480.657" stroke="white" stroke-width="0.5" stroke-linecap="round" stroke-dasharray="20 8"/>
<path d="M118.169 385.689C257.876 287.96 339.999 243.001 529.999 195" stroke="white" stroke-width="0.5" stroke-linecap="round" stroke-dasharray="20 8"/>
<path d="M532 194.501C403.973 160.288 332.636 151.18 206.159 152.315" stroke="white" stroke-width="0.5" stroke-linecap="round" stroke-dasharray="20 8"/>
<path d="M532.5 195C359.983 197.291 264.298 205.362 95.5002 232" stroke="white" stroke-width="0.5" stroke-linecap="round" stroke-dasharray="20 8"/>
<path d="M532.499 195.001C480.999 324.501 414.746 434.095 277.352 481.028" stroke="white" stroke-width="0.5" stroke-linecap="round" stroke-dasharray="20 8"/>
<path d="M530.499 195.501C494.999 266.001 455.499 311.501 361.323 330.143" stroke="white" stroke-width="0.5" stroke-linecap="round" stroke-dasharray="20 8"/>
<path d="M363.499 332.001C351.999 398.001 328.999 434.001 279.499 481.001" stroke="white" stroke-width="0.5" stroke-linecap="round" stroke-dasharray="20 8"/>
<path d="M363.999 332.001C234.499 348.001 154 305.001 94.9995 232.001" stroke="white" stroke-width="0.5" stroke-linecap="round" stroke-dasharray="20 8"/>
<path d="M362.648 330.972C329.584 256.844 307.073 215.937 209.972 152.352" stroke="white" stroke-width="0.5" stroke-linecap="round" stroke-dasharray="20 8"/>
<path d="M277.702 478.809C276.5 348.648 264.709 276.771 205.81 152.297" stroke="white" stroke-width="0.5" stroke-linecap="round" stroke-dasharray="20 8"/>
<path d="M131.35 53.0507C179.804 90.9574 198.73 113.575 210.049 157.651" stroke="white" stroke-width="0.5" stroke-linecap="round" stroke-dasharray="20 8"/>
<path d="M127.999 52.5027C278.499 114.003 374.999 186.503 363.999 331.503" stroke="white" stroke-width="0.5" stroke-linecap="round" stroke-dasharray="20 8"/>
<path d="M125.999 52.0015C162.5 166.501 161 380.001 280.5 480.502" stroke="white" stroke-width="0.5" stroke-linecap="round" stroke-dasharray="20 8"/>
<path d="M98.058 231.651C131.847 185.806 156.254 168.315 209.651 151.941" stroke="white" stroke-width="0.5" stroke-linecap="round" stroke-dasharray="20 8"/>
</g>
<circle cx="531.885" cy="195.115" r="5.865" fill="white"/>
<circle cx="363.885" cy="331.115" r="5.865" fill="white"/>
<circle cx="278.885" cy="481.115" r="5.865" fill="white"/>
<circle cx="115.885" cy="386.115" r="5.865" fill="white"/>
<circle cx="209.885" cy="152.115" r="5.865" fill="white"/>
<circle cx="126.885" cy="52.115" r="5.865" fill="white"/>
<circle cx="13.885" cy="112.115" r="5.865" fill="white"/>
<circle cx="95.885" cy="233.115" r="5.865" fill="white"/>
</svg>
