<svg width="26" height="26" viewBox="0 0 26 26" fill="none" xmlns="http://www.w3.org/2000/svg">
<path d="M3 25C1.89798 25 1 24.102 1 23V7C1 5.89798 1.89798 5 3 5H19C20.102 5 21 5.89798 21 7V23C21 24.102 20.102 25 19 25H3Z" stroke="#60A1E2" stroke-width="2"/>
<path d="M25 0H13.5C13.22 0 13 0.22 13 0.5V1.5C13 1.78 13.22 2 13.5 2H22.59L10.65 13.94C10.45 14.13 10.45 14.45 10.65 14.65L11.35 15.35C11.55 15.55 11.87 15.55 12.06 15.35L24 3.41V12.5C24 12.78 24.22 13 24.5 13H25.5C25.78 13 26 12.78 26 12.5V1C26 0.45 25.55 0 25 0Z" fill="#94D4FF"/>
</svg>
